/* XPM */
static char * alembic_untagger_xpm[] = {
"33 33 120 2",
"  	c None",
". 	c #343434",
"+ 	c #4F1E1E",
"@ 	c #5A1515",
"# 	c #630F0F",
"$ 	c #670B0B",
"% 	c #690A0A",
"& 	c #4B2121",
"* 	c #611010",
"= 	c #6A0A0A",
"- 	c #3E2C2C",
"; 	c #541A1A",
"> 	c #660C0C",
", 	c #6A5D5D",
"' 	c #939393",
") 	c #969696",
"! 	c #999999",
"~ 	c #8F8F8F",
"{ 	c #665959",
"] 	c #640E0E",
"^ 	c #4D2828",
"/ 	c #A2A2A2",
"( 	c #ABABAB",
"_ 	c #A7A7A7",
": 	c #9C9C9C",
"< 	c #4C2727",
"[ 	c #ADADAD",
"} 	c #4C2020",
"| 	c #6D6D6D",
"1 	c #620F0F",
"2 	c #333333",
"3 	c #8B8B8B",
"4 	c #563030",
"5 	c #FFFFFF",
"6 	c #989898",
"7 	c #BEBEBE",
"8 	c #E1E1E1",
"9 	c #AFAFAF",
"0 	c #4D2727",
"a 	c #767676",
"b 	c #C0C0C0",
"c 	c #EBEBEB",
"d 	c #BCBCBC",
"e 	c #E9E9E9",
"f 	c #C2C2C2",
"g 	c #3F3F3F",
"h 	c #E0E0E0",
"i 	c #EDEDED",
"j 	c #F9F9F9",
"k 	c #ACACAC",
"l 	c #B1B1B1",
"m 	c #534646",
"n 	c #272727",
"o 	c #838383",
"p 	c #655858",
"q 	c #575757",
"r 	c #222222",
"s 	c #E5E5E5",
"t 	c #FAFAFA",
"u 	c #2F2F2F",
"v 	c #757575",
"w 	c #F7F7F7",
"x 	c #303030",
"y 	c #444444",
"z 	c #646464",
"A 	c #949494",
"B 	c #AEAEAE",
"C 	c #626262",
"D 	c #161616",
"E 	c #E6E6E6",
"F 	c #535353",
"G 	c #737373",
"H 	c #424242",
"I 	c #CCCCCC",
"J 	c #7A7A7A",
"K 	c #878787",
"L 	c #B6B6B6",
"M 	c #848484",
"N 	c #545454",
"O 	c #7C7C7C",
"P 	c #BFBFBF",
"Q 	c #393939",
"R 	c #B5B5B5",
"S 	c #4A4A4A",
"T 	c #D4D4D4",
"U 	c #C3C3C3",
"V 	c #BBBBBB",
"W 	c #5C5C5C",
"X 	c #1A1A1A",
"Y 	c #0F0F0F",
"Z 	c #CECECE",
"` 	c #C1C1C1",
" .	c #A4A4A4",
"..	c #292929",
"+.	c #6E6E6E",
"@.	c #D2D2D2",
"#.	c #D1D1D1",
"$.	c #BDBDBD",
"%.	c #656565",
"&.	c #F1F1F1",
"*.	c #FEFEFE",
"=.	c #929292",
"-.	c #DCDCDC",
";.	c #4E2929",
">.	c #505050",
",.	c #A9A9A9",
"'.	c #CBCBCB",
").	c #FCFCFC",
"!.	c #F6F6F6",
"~.	c #D8D8D8",
"{.	c #121212",
"].	c #4E4E4E",
"^.	c #696969",
"/.	c #4B2020",
"(.	c #B9B9B9",
"_.	c #1D1D1D",
":.	c #585858",
"<.	c #4E2828",
"[.	c #6D5F5F",
"}.	c #6F6262",
". . . . . . . . . . . . + @ # $ % $ # @ + . . . . . . . . . . . . ",
". . . . . . . . . & * = = = = = = = = = = = * & . . . . . . . . . ",
". . . . . . . - # = = = = = = = = = = = = = = = # - . . . . . . . ",
". . . . . . ; = = = = > ; , ' ) ! ) ~ { ; > = = = = ; . . . . . . ",
". . . . . @ = = = ] ^ / ( _ : ! ! : / _ ( ! < ] = = = @ . . . . . ",
". . . . @ = = = ; / [ ! ' ) ) ) ) ) ) ) ) : ( = = = = = @ . . . . ",
". . . ; = = = } ( / ' ) ) ) ) ) ) ) ) ) ) ) ' = = = = = = ; . . . ",
". . - = = = } : / ) ) ) ) ) ) ) ) ) ) ) ) ) = = = = = = = = - . . ",
". . # = = ; | [ ) ) ) ) ) ) ) ) ) ) ) ) ) = = = = = [ ; = = 1 . . ",
". & = = ] 2 3 / ) ) ) ) ) ) ) ) ) ) ) ) / = = = = = : / ] = = & . ",
". * = = 4 5 5 5 5 5 5 5 5 5 ) ) ) 6 7 8 = = = = = 9 : ( 0 = = * . ",
". = = > a 3 b 7 5 c d d d d ) ) / c 5 = = = = = e 5 f ! : > = = . ",
"+ = = ; g . ) : 5 h ) ) ) ) ) ! i j = = = = = ( k d l ) ( ; = = + ",
"@ = = m g n o _ 5 h ) ) ) ) ) f 5 = = = = = ! ! ) ) ) ) _ p = = @ ",
"# = = q 2 r q ( 5 h ) ) ) ) ) s t = = = = = ) ( / ) ) ) : 3 = = # ",
"$ = = q u 2 r v 5 8 ) ) ) ) ) w = = = = = x y z A B : ! : ' = = $ ",
"% = = C u u D r 5 E ( ! : ! / = = = = = . F 5 5 5 5 s ' ! ) = = % ",
"$ = = G r 2 | H 5 I J ' ! ) = = = = = K [ L 7 M N 5 h : : ) = = $ ",
"# = = O n O ! H 5 P n 2 Q = = = = = ( R v q ' l S 5 T ( : ~ = = # ",
"@ = = { O ) u n 5 U r 2 = = = = = V R W X Y r _ O 5 Z ( _ { = = @ ",
"+ = = ; ` v r . 5 P W / = = = = = t  .r ..H W [ +.5 @.( ( ; = = + ",
". = = > l o ..2 5 #.$.= = = = = %.&.*.U =.' $.7 -.5 I / / > = = . ",
". * = = ;.( g X 5 s = = = = = >.H ,.f '.c ).!.~./ 3 _ ( ^ = = * . ",
". & = = ] $.v {.y = = = = = H g n 3 R ' ].2 ... ^./ : _ ] = = /.. ",
". . # = = ; ` >.= = = = = . u u n H : R ( ~ K ) _ ! [ ; = = 1 . . ",
". . - = = = } (.= = = = = u . 2 . r H o ' ! / : ! [ } = = = - . . ",
". . . ; = = = = = = = = C u _.r n n D D g o : : [ } = = = ; . . . ",
". . . . @ = = = = = = ! _ ~ | q S ].:.^.K ) _ _ ; = = = @ . . . . ",
". . . . . @ = = = = ;._ ( ( [ ( / _ ( l l _ <.] = = = @ . . . . . ",
". . . . . . ; = = = = > ; [.) ! / : ) }.; > = = = = ; . . . . . . ",
". . . . . . . - # = = = = = = = = = = = = = = = # - . . . . . . . ",
". . . . . . . . 2 /.* = = = = = = = = = = = * & . . . . . . . . . ",
". . . . . . . . . . . . + @ # $ % $ # @ + . . . . . . . . . . . . "};
