/* XPM */
static char * AndrePickerImageScaled_xpm[] = {
"32 29 59 1",
" 	c #666666",
".	c #6B6B6B",
"+	c #656565",
"@	c #6A6A6A",
"#	c #767676",
"$	c #757575",
"%	c #717171",
"&	c #696969",
"*	c #676767",
"=	c #646464",
"-	c #636363",
";	c #686868",
">	c #929292",
",	c #868686",
"'	c #888888",
")	c #9B9B9B",
"!	c #9A9A9A",
"~	c #707070",
"{	c #777777",
"]	c #878787",
"^	c #7A7A7A",
"/	c #808080",
"(	c #969696",
"_	c #8F8F8F",
":	c #959595",
"<	c #999999",
"[	c #787878",
"}	c #979797",
"|	c #8E8E8E",
"1	c #727272",
"2	c #7B7B7B",
"3	c #7E7E7E",
"4	c #848484",
"5	c #989898",
"6	c #838383",
"7	c #7F7F7F",
"8	c #6C6C6C",
"9	c #949494",
"0	c #6D6D6D",
"a	c #898989",
"b	c #919191",
"c	c #9C9C9C",
"d	c #747474",
"e	c #939393",
"f	c #909090",
"g	c #6E6E6E",
"h	c #8B8B8B",
"i	c #8A8A8A",
"j	c #858585",
"k	c #797979",
"l	c #737373",
"m	c #8C8C8C",
"n	c #7C7C7C",
"o	c #626262",
"p	c #6F6F6F",
"q	c #8D8D8D",
"r	c #7D7D7D",
"s	c #616161",
"t	c #818181",
"    . +       @#$%        +&*+  ",
" =-;>,*+      '))!;+     -~>{==+",
"+#]^/(_&     *:<<){=    +[}|123*",
" 4(5!5)6=   +.}<<!7=+  +89<}!590",
";abb}<<:-   =3c55<)-+  +d)5<efe%",
"*aeb}5<'=   +@6<<|d=   +g<5<9(!0",
"+8hij3{*     +k5<h=      l7jim3 ",
"+  * +++   +-;e<<<no=+  +++ *; +",
" */&+81p000nf:<555!qjg800pp *$1 ",
"&i}fr()!<}5!<<5<<5<<!<(}<)!4'5>1",
"&b<:><5<<<<<5<<<<<<<5<<<<<5(><!1",
"+..oo'e>ffe955<<<<<<9e>fb>fps*0 ",
"+++++ ..@@.8|<5<<<5(1..@@.&+ +++",
"           +&}<5<<<n=           ",
"            =1<<5!a-+           ",
"              4<<:;+            ",
"             +{5<'              ",
"             +#5<]              ",
"             +1(</              ",
"             +~(:7              ",
"             +15a4              ",
"             +{<''              ",
"             +2!aq              ",
"             +2)i_*             ",
"             +0]gr              ",
"             +@/&{+             ",
"             +.t&#+             ",
"              {b2,              ",
"             +g[pl              "};
