/* XPM */
static char * bug_xpm[] = {
"33 33 118 2",
"  	c #424242",
". 	c #424141",
"+ 	c #493939",
"@ 	c #443F3F",
"# 	c #414242",
"$ 	c #592929",
"% 	c #483B3B",
"& 	c #532F2F",
"* 	c #5C2424",
"= 	c #4D3535",
"- 	c #592727",
"; 	c #503131",
"> 	c #434040",
", 	c #444040",
"' 	c #5C2525",
") 	c #493A3A",
"! 	c #582828",
"~ 	c #404343",
"{ 	c #4D3737",
"] 	c #414343",
"^ 	c #3F4444",
"/ 	c #621C1C",
"( 	c #4A3939",
"_ 	c #631C1C",
": 	c #453E3E",
"< 	c #601E1E",
"[ 	c #483A3A",
"} 	c #5D2323",
"| 	c #513232",
"1 	c #4F3434",
"2 	c #572929",
"3 	c #473C3C",
"4 	c #552C2C",
"5 	c #3F4545",
"6 	c #4B3737",
"7 	c #582929",
"8 	c #562C2C",
"9 	c #404444",
"0 	c #453F3F",
"a 	c #4E3434",
"b 	c #463D3D",
"c 	c #552B2B",
"d 	c #6F0D0D",
"e 	c #6D0F0F",
"f 	c #582727",
"g 	c #611E1E",
"h 	c #582A2A",
"i 	c #602020",
"j 	c #651A1A",
"k 	c #592828",
"l 	c #434141",
"m 	c #611F1F",
"n 	c #5D2222",
"o 	c #5E2222",
"p 	c #5E2121",
"q 	c #641A1A",
"r 	c #4A3838",
"s 	c #671717",
"t 	c #651818",
"u 	c #4C3636",
"v 	c #631D1D",
"w 	c #4B3838",
"x 	c #503232",
"y 	c #681515",
"z 	c #6A1414",
"A 	c #6E0E0E",
"B 	c #6C1010",
"C 	c #651919",
"D 	c #433F3F",
"E 	c #671616",
"F 	c #6D1010",
"G 	c #6C1111",
"H 	c #641919",
"I 	c #562B2B",
"J 	c #6E0D0D",
"K 	c #6B1212",
"L 	c #691414",
"M 	c #4B3636",
"N 	c #424040",
"O 	c #513030",
"P 	c #641B1B",
"Q 	c #631B1B",
"R 	c #6A1313",
"S 	c #621E1E",
"T 	c #503030",
"U 	c #661818",
"V 	c #6D1212",
"W 	c #4E3333",
"X 	c #562A2A",
"Y 	c #463C3C",
"Z 	c #681717",
"` 	c #572A2A",
" .	c #601F1F",
"..	c #542E2E",
"+.	c #5B2525",
"@.	c #5B2626",
"#.	c #611D1D",
"$.	c #4F3232",
"%.	c #4B3939",
"&.	c #4E3535",
"*.	c #661717",
"=.	c #532E2E",
"-.	c #542C2C",
";.	c #5C2323",
">.	c #523030",
",.	c #513131",
"'.	c #473B3B",
").	c #453D3D",
"!.	c #562929",
"~.	c #5A2626",
"{.	c #5F2222",
"].	c #4C3535",
"^.	c #5A2727",
"/.	c #542D2D",
"(.	c #552E2E",
"_.	c #5A2828",
":.	c #414141",
"<.	c #4C3737",
"                  . + @ # #           # # $ % #                   ",
"                  . & * @ # .         # = - @ #                   ",
"                  # # ; - > .       . , ' ) # .                   ",
"                  . # # ! ; ~ .     # { - ] #                     ",
"                    . # ^ / ( #   . ~ _ : # .                     ",
"                        # : < ~ # # [ } ^ .                       ",
"                        . ~ | 1 ~ ~ 2 3 #                         ",
"                          . . 4 5 5 ! ~ .       . # # # .         ",
"                  . # # # . . 6 7 = 8 ~ # ~ 9 ~ ~ 9 > 0 # .       ",
"        # . . . . . > a b # . c d e f ~ > ! g ! h i j k l #       ",
"        # ) m } n o } p q r ) s e e t u 4 v 0 w 4 x ~ ~ # .       ",
"        # l 9 : x % 5 ~ 7 y z A B B e B C [ ^ ] ~ ~ # .           ",
"        . # # # ] # D - E e e B F F B e G H I # .                 ",
"                  . ; J e e F F F F F B e e e 2 ~                 ",
"              . # # % K e F F F F F F F F e d u # # .             ",
"              # . u ; L e F F F F F F F F e K M u N #             ",
"            . ~ O P Q R e F F F F F F F F e G S _ T ~ .           ",
"            # ] p b r U e F F F F F F F F e V : ) h > #           ",
"          . ] W X # Y t e F F F F F F F F e Z . > ` = #           ",
"      . # # l  .= # Y U e F F F F F F F F e z . # ..+.D # # .     ",
"      . # = @.g : # b s e F F F F F F F F e K # ~ % #.2 = # #     ",
"      # ) I $.b > %.&.*.e F F F F F F F F e z r u . b $.=.+ #     ",
"      # @ . # ^ X G C y e F F F F F F F F e L _ R -.~ #   @ #     ",
"      . # # # # _ . @ n A B F F F F F F F A ;.. Y +.: # # # .     ",
"            # w f # # >.B e F F F F F F e d a . @ ` w #           ",
"            ~ T ,.# # '.C e F F F F F B A U ).# . ..W #           ",
"            ~ !.w # # ~ =.B B F F F F e B =.# # # O $.#           ",
"          . 9 ~.% # . # # o A B B F B e < , # . # ; O .           ",
"        . # 0 {.'.    . # ~ g B e e B U , # .   # ].^.@ # .       ",
"        # : /.g ).      . . ~ (.*.E * 5 # .     # [ / O ).# .     ",
"        # _.^.) .           # ~ : : ^ :..       # # + ^.` . #     ",
"        # <.~ # #           . # # # #           . # # ~ ) , #     ",
"        # . # .                                     . #   . #     "};
