/* XPM */
static char * cam_xpm[] = {
"33 33 147 2",
"  	c None",
". 	c #525252",
"+ 	c #445765",
"@ 	c #1866A3",
"# 	c #106AB0",
"$ 	c #1269AD",
"% 	c #2C6087",
"& 	c #4A545C",
"* 	c #1D649B",
"= 	c #106AAF",
"- 	c #116AAF",
"; 	c #246292",
"> 	c #4F5255",
", 	c #2A6089",
"' 	c #0C6CB5",
") 	c #0C6CB6",
"! 	c #0C6AB4",
"~ 	c #0D6CB6",
"{ 	c #0C6BB5",
"] 	c #1469AB",
"^ 	c #4C545A",
"/ 	c #345C7B",
"( 	c #0D6CB5",
"_ 	c #0F6BB1",
": 	c #415768",
"< 	c #40586A",
"[ 	c #0D6BB4",
"} 	c #126AAE",
"| 	c #49555E",
"1 	c #0D6BB3",
"2 	c #0D6BB5",
"3 	c #0C6BB6",
"4 	c #0C6BB4",
"5 	c #0D6BB6",
"6 	c #4C5359",
"7 	c #1168AC",
"8 	c #0D6AB5",
"9 	c #425768",
"0 	c #27618D",
"a 	c #375B77",
"b 	c #395A74",
"c 	c #1369AC",
"d 	c #28608D",
"e 	c #505253",
"f 	c #3A5A73",
"g 	c #1568A8",
"h 	c #2A608A",
"i 	c #1866A2",
"j 	c #0D6CB4",
"k 	c #455664",
"l 	c #2E5E84",
"m 	c #0C6BB3",
"n 	c #3B5A71",
"o 	c #485560",
"p 	c #1A66A0",
"q 	c #4D5358",
"r 	c #0E69AE",
"s 	c #1169AE",
"t 	c #505254",
"u 	c #3A5972",
"v 	c #1C659D",
"w 	c #0E6BB3",
"x 	c #1467A8",
"y 	c #4E5356",
"z 	c #2D5E84",
"A 	c #236395",
"B 	c #26608E",
"C 	c #3D596E",
"D 	c #325D7F",
"E 	c #236293",
"F 	c #246291",
"G 	c #226395",
"H 	c #1A66A1",
"I 	c #1A66A2",
"J 	c #1B66A0",
"K 	c #1A65A0",
"L 	c #1B66A1",
"M 	c #1B65A0",
"N 	c #1967A3",
"O 	c #325E80",
"P 	c #515252",
"Q 	c #315D7E",
"R 	c #4E5357",
"S 	c #4C5459",
"T 	c #206496",
"U 	c #0E6BB2",
"V 	c #48555F",
"W 	c #0E6BB4",
"X 	c #49555D",
"Y 	c #2D5F85",
"Z 	c #355C7B",
"` 	c #2F5E84",
" .	c #2F5F83",
"..	c #2F5E83",
"+.	c #0C6CB4",
"@.	c #2E5F83",
"#.	c #0B6CB4",
"$.	c #0E6AB3",
"%.	c #1867A4",
"&.	c #0B6CB6",
"*.	c #0D6AB3",
"=.	c #1F6499",
"-.	c #305D80",
";.	c #2C5F87",
">.	c #2E5F84",
",.	c #2F5E82",
"'.	c #305E83",
").	c #2D5F86",
"!.	c #2B5F87",
"~.	c #3B5A72",
"{.	c #335C7D",
"].	c #1F659B",
"^.	c #206499",
"/.	c #365B78",
"(.	c #20649A",
"_.	c #246294",
":.	c #445664",
"<.	c #1468AA",
"[.	c #3C5970",
"}.	c #3E596D",
"|.	c #246393",
"1.	c #415769",
"2.	c #216498",
"3.	c #1668A7",
"4.	c #0F69AF",
"5.	c #226294",
"6.	c #435765",
"7.	c #2C5F88",
"8.	c #455662",
"9.	c #26618F",
"0.	c #28608C",
"a.	c #0F6AB1",
"b.	c #246394",
"c.	c #1269AC",
"d.	c #4F5355",
"e.	c #1169AC",
"f.	c #3D596F",
"g.	c #445665",
"h.	c #1468AB",
"i.	c #1D659E",
"j.	c #1368A9",
"k.	c #415869",
"l.	c #0D6AB2",
"m.	c #49545D",
"n.	c #455663",
"o.	c #465661",
"p.	c #4B545A",
". . . . . . . . . . . . . . . . . . . . . . . . . . . . . . . . . ",
". . . . . + @ # $ % . . . . . & * = - ; > . . . . . . . . . . . . ",
". . . . , ' ) ! ~ { ] ^ . . / ' ( { ~ { _ : . . . . . . . . . . . ",
". . . < ' [ ( ~ { ( ) } . | 1 2 ~ ~ 3 ~ 4 5 6 . . . . . . . . . . ",
". . . 7 ( ( ~ { ~ { 8 { 9 0 ' ~ ~ ( ( ( ! 4 a . . . . . . . . . . ",
". . > ~ { ( ( ( ( ( ) ~ b c ' ~ ~ ' ~ ~ ~ ( d . . . . . . . . . . ",
". . e { [ ( ( ( ) ( ( 2 f g { ( ~ 4 ~ ~ ( ~ h . . . . . . . . . . ",
". . . i { ~ ~ ' j ~ 2 3 k l ( { ~ ( ' ' [ m n . . . . . . . . . . ",
". . . o ! ( [ ( ~ [ ( p . q r ( ( ~ ' 4 ' s t . . . . . . . . . . ",
". . . . u ~ ~ ! ~ ( v t . . k w ( ~ ( 5 x 6 . . . . . . . . . . . ",
". . . . . y z A B C . . . . . . D E F a . . . . . . . . . . . . . ",
". . . t G H p I J J K K J p K p L H I M N O . . . . . . P Q R . . ",
". . . S 2 ~ 5 3 2 { { { { 2 2 2 ( { ( 2 ' { P . . . b T U ' V . . ",
". . . S ~ ' j ( 4 2 2 j ' ' 3 { { ( 3 ' { W e X Y 3 ( 5 ' ( V . . ",
". . . 6 ' ( ( ' [ { 3 ( ( ' { { ~ { ~ 2 { W Z { ( ' ) ) ( 4 V . . ",
". . . S ~ ) ( ( ) ( ( ' { ( ' ( ~ ( ' ' ' W ` ' ) ( 5 2 ~ { V . . ",
". . . S ~ ~ ( ( ~ ~ ( ' ~ ~ ( ( ~ ( ~ ~ ' W  .{ ( ' ' ( j ( V . . ",
". . . S ( ' ( ( 5 ( ' ~ ' ( ( ( ( { ( { ~ 1 ..' ( ~ ~ ' ) { V . . ",
". . . S ' ~ ~ 2 ( ( ' ) 2 ' 2 ( ( ~ { 5 +.W @.5 ) ( ( ~ ( #.V . . ",
". . . S ~ ) ~ ( 5 ~ +.' ( { ~ ( ~ 4 { { ' $.a ( 5 4 ( ( ( { V . . ",
". . . 6 2 ( ( ' ( ( ' ' 2 ~ 3 ( ( ~ ( ~ ( [ . X Y %.~ ( 2 ~ V . . ",
". . . S ( { &.~ ( ' ~ ~ { ( j ' ) ' ) ' ~ *.P . . . & =.~ ( V . . ",
". . . e -.;.;.;.;.>.,.'.l ).,.'.,.;.;.;.!.f . . . . . . 6 ~.> . . ",
". . . . . . . . . {.].^./.q (.=._.P . . . . . . . . . . . . . . . ",
". . . . . . . . y $ ) ~ :.e <.( ~ [.. . . . . . . . . . . . . . . ",
". . . . . . . . }.' ~ |.. . 1.' ~ 2.. . . . . . . . . . . . . . . ",
". . . . . . . . 3.5 4.P . . . 5.~ +.y . . . . . . . . . . . . . . ",
". . . . . . . 6.2 ) 7.. . . . 8.' ( 9.. . . . . . . . . . . . . . ",
". . . . . . . 0.' a.. . . . . . b.{ c.d.. . . . . . . . . . . . . ",
". . . . . . . e.5 f.. . . . . . e - { g.. . . . . . . . . . . . . ",
". . . . . . [.{ h.e . . . . . . . ).~ i.. . . . . . . . . . . . . ",
". . . . . . j.5 k.. . . . . . . . . l.~ m.. . . . . . . . . . . . ",
". . . . . P n.o.. . . . . . . . . . p.k y . . . . . . . . . . . . "};
