/* XPM */
static char * cam_xpm[] = {
"33 33 127 2",
"  	c None",
". 	c #424242",
"+ 	c #43525D",
"@ 	c #1866A3",
"# 	c #106AB0",
"$ 	c #1269AD",
"% 	c #2C6087",
"& 	c #1D649B",
"* 	c #106AAF",
"= 	c #116AAF",
"- 	c #246292",
"; 	c #2A6089",
"> 	c #0C6CB5",
", 	c #0C6CB6",
"' 	c #0C6AB4",
") 	c #0D6CB6",
"! 	c #0C6BB5",
"~ 	c #1469AB",
"{ 	c #345C7B",
"] 	c #0D6CB5",
"^ 	c #0F6BB1",
"/ 	c #415667",
"( 	c #40586A",
"_ 	c #0D6BB4",
": 	c #126AAE",
"< 	c #0D6BB3",
"[ 	c #0D6BB5",
"} 	c #0C6BB6",
"| 	c #0C6BB4",
"1 	c #0D6BB6",
"2 	c #1168AC",
"3 	c #0D6AB5",
"4 	c #425667",
"5 	c #27618D",
"6 	c #375B77",
"7 	c #395A74",
"8 	c #1369AC",
"9 	c #28608D",
"0 	c #3A5A73",
"a 	c #1568A8",
"b 	c #2A608A",
"c 	c #1866A2",
"d 	c #0D6CB4",
"e 	c #434E57",
"f 	c #2E5E84",
"g 	c #0C6BB3",
"h 	c #3B5A71",
"i 	c #1A66A0",
"j 	c #0E69AE",
"k 	c #1169AE",
"l 	c #3A5972",
"m 	c #1C659D",
"n 	c #0E6BB3",
"o 	c #1467A8",
"p 	c #2D5E84",
"q 	c #236395",
"r 	c #26608E",
"s 	c #3D596E",
"t 	c #325D7F",
"u 	c #236293",
"v 	c #246291",
"w 	c #226395",
"x 	c #1A66A1",
"y 	c #1A66A2",
"z 	c #1B66A0",
"A 	c #1A65A0",
"B 	c #1B66A1",
"C 	c #1B65A0",
"D 	c #1967A3",
"E 	c #325E80",
"F 	c #315D7E",
"G 	c #206496",
"H 	c #0E6BB2",
"I 	c #0E6BB4",
"J 	c #2D5F85",
"K 	c #355C7B",
"L 	c #2F5E84",
"M 	c #2F5F83",
"N 	c #2F5E83",
"O 	c #0C6CB4",
"P 	c #2E5F83",
"Q 	c #0B6CB4",
"R 	c #0E6AB3",
"S 	c #1867A4",
"T 	c #0B6CB6",
"U 	c #0D6AB3",
"V 	c #1F6499",
"W 	c #305D80",
"X 	c #2C5F87",
"Y 	c #2E5F84",
"Z 	c #2F5E82",
"` 	c #305E83",
" .	c #2D5F86",
"..	c #2B5F87",
"+.	c #3B5A72",
"@.	c #335C7D",
"#.	c #1F659B",
"$.	c #206499",
"%.	c #365B78",
"&.	c #20649A",
"*.	c #246294",
"=.	c #1468AA",
"-.	c #3C5970",
";.	c #3E596D",
">.	c #246393",
",.	c #415769",
"'.	c #216498",
").	c #1668A7",
"!.	c #0F69AF",
"~.	c #226294",
"{.	c #42525D",
"].	c #2C5F88",
"^.	c #424649",
"/.	c #26618F",
"(.	c #28608C",
"_.	c #0F6AB1",
":.	c #246394",
"<.	c #1269AC",
"[.	c #1169AC",
"}.	c #3D596F",
"|.	c #43515D",
"1.	c #1468AB",
"2.	c #1D659E",
"3.	c #1368A9",
"4.	c #415869",
"5.	c #0D6AB2",
"6.	c #434B51",
". . . . . . . . . . . . . . . . . . . . . . . . . . . . . . . . . ",
". . . . . + @ # $ % . . . . . . & * = - . . . . . . . . . . . . . ",
". . . . ; > , ' ) ! ~ . . . { > ] ! ) ! ^ / . . . . . . . . . . . ",
". . . ( > _ ] ) ! ] , : . . < [ ) ) } ) | 1 . . . . . . . . . . . ",
". . . 2 ] ] ) ! ) ! 3 ! 4 5 > ) ) ] ] ] ' | 6 . . . . . . . . . . ",
". . . ) ! ] ] ] ] ] , ) 7 8 > ) ) > ) ) ) ] 9 . . . . . . . . . . ",
". . . ! _ ] ] ] , ] ] [ 0 a ! ] ) | ) ) ] ) b . . . . . . . . . . ",
". . . c ! ) ) > d ) [ } e f ] ! ) ] > > _ g h . . . . . . . . . . ",
". . . . ' ] _ ] ) _ ] i . . j ] ] ) > | > k . . . . . . . . . . . ",
". . . . l ) ) ' ) ] m . . . e n ] ) ] 1 o . . . . . . . . . . . . ",
". . . . . . p q r s . . . . . . t u v 6 . . . . . . . . . . . . . ",
". . . . w x i y z z A A z i A i B x y C D E . . . . . . . F . . . ",
". . . . [ ) 1 } [ ! ! ! ! [ [ [ ] ! ] [ > ! . . . . 7 G H > . . . ",
". . . . ) > d ] | [ [ d > > } ! ! ] } > ! I . . J } ] 1 > ] . . . ",
". . . . > ] ] > _ ! } ] ] > ! ! ) ! ) [ ! I K ! ] > , , ] | . . . ",
". . . . ) , ] ] , ] ] > ! ] > ] ) ] > > > I L > , ] 1 [ ) ! . . . ",
". . . . ) ) ] ] ) ) ] > ) ) ] ] ) ] ) ) > I M ! ] > > ] d ] . . . ",
". . . . ] > ] ] 1 ] > ) > ] ] ] ] ! ] ! ) < N > ] ) ) > , ! . . . ",
". . . . > ) ) [ ] ] > , [ > [ ] ] ) ! 1 O I P 1 , ] ] ) ] Q . . . ",
". . . . ) , ) ] 1 ) O > ] ! ) ] ) | ! ! > R 6 ] 1 | ] ] ] ! . . . ",
". . . . [ ] ] > ] ] > > [ ) } ] ] ) ] ) ] _ . . J S ) ] [ ) . . . ",
". . . . ] ! T ) ] > ) ) ! ] d > , > , > ) U . . . . . V ) ] . . . ",
". . . . W X X X X Y Z ` f  .Z ` Z X X X ..0 . . . . . . . +.. . . ",
". . . . . . . . . @.#.$.%.. &.V *.. . . . . . . . . . . . . . . . ",
". . . . . . . . . $ , ) e . =.] ) -.. . . . . . . . . . . . . . . ",
". . . . . . . . ;.> ) >.. . ,.> ) '.. . . . . . . . . . . . . . . ",
". . . . . . . . ).1 !.. . . . ~.) O . . . . . . . . . . . . . . . ",
". . . . . . . {.[ , ].. . . . ^.> ] /.. . . . . . . . . . . . . . ",
". . . . . . . (.> _.. . . . . . :.! <.. . . . . . . . . . . . . . ",
". . . . . . . [.1 }.. . . . . . . = ! |.. . . . . . . . . . . . . ",
". . . . . . -.! 1.. . . . . . . .  .) 2.. . . . . . . . . . . . . ",
". . . . . . 3.1 4.. . . . . . . . . 5.) . . . . . . . . . . . . . ",
". . . . . . 6.. . . . . . . . . . . . e . . . . . . . . . . . . . "};
