/* XPM */
static char * delete_xpm[] = {
"33 33 193 2",
"  	c #434343",
". 	c #4E4D4D",
"+ 	c #494949",
"@ 	c #444444",
"# 	c #585756",
"$ 	c #787675",
"% 	c #626160",
"& 	c #464646",
"* 	c #454545",
"= 	c #565655",
"- 	c #868482",
"; 	c #A6A39F",
"> 	c #7D7B79",
", 	c #494848",
"' 	c #444443",
") 	c #5C5C5B",
"! 	c #8B8986",
"~ 	c #A7A5A0",
"{ 	c #A5A29F",
"] 	c #7D7B78",
"^ 	c #484848",
"/ 	c #4D4D4C",
"( 	c #565654",
"_ 	c #474747",
": 	c #5E5E5C",
"< 	c #8E8E8A",
"[ 	c #A7A4A0",
"} 	c #A5A29E",
"| 	c #7D7A78",
"1 	c #4A4A4A",
"2 	c #71716E",
"3 	c #97948F",
"4 	c #6A6866",
"5 	c #464545",
"6 	c #474746",
"7 	c #626260",
"8 	c #918F8B",
"9 	c #A8A5A1",
"0 	c #7C7A78",
"a 	c #4C4C4B",
"b 	c #7B7877",
"c 	c #9A9794",
"d 	c #6F6D6B",
"e 	c #484847",
"f 	c #686866",
"g 	c #94918E",
"h 	c #A4A19D",
"i 	c #898784",
"j 	c #666563",
"k 	c #636361",
"l 	c #636261",
"m 	c #555554",
"n 	c #4F4F4F",
"o 	c #7A7876",
"p 	c #918F8C",
"q 	c #979491",
"r 	c #706F6C",
"s 	c #4A4949",
"t 	c #6D6B6A",
"u 	c #969390",
"v 	c #A29E9A",
"w 	c #9B9794",
"x 	c #9A9793",
"y 	c #9C9996",
"z 	c #8B8886",
"A 	c #6B6967",
"B 	c #777673",
"C 	c #989592",
"D 	c #686665",
"E 	c #868381",
"F 	c #9A9792",
"G 	c #767472",
"H 	c #71706E",
"I 	c #A09E9A",
"J 	c #84827F",
"K 	c #807E7C",
"L 	c #93918D",
"M 	c #525151",
"N 	c #848280",
"O 	c #989693",
"P 	c #7A7977",
"Q 	c #515050",
"R 	c #4E4E4D",
"S 	c #747371",
"T 	c #9B9995",
"U 	c #504F4F",
"V 	c #82807D",
"W 	c #9A9894",
"X 	c #535252",
"Y 	c #6F6E6D",
"Z 	c #9A9994",
"` 	c #797876",
" .	c #535352",
"..	c #817F7C",
"+.	c #7C7B78",
"@.	c #545353",
"#.	c #83817F",
"$.	c #A3A09C",
"%.	c #82807E",
"&.	c #4D4D4D",
"*.	c #50504F",
"=.	c #807D7B",
"-.	c #999692",
";.	c #565554",
">.	c #6E6C6B",
",.	c #A29F9C",
"'.	c #7C7978",
").	c #7C7A77",
"!.	c #989491",
"~.	c #807E7B",
"{.	c #4A4A49",
"].	c #6E6E6B",
"^.	c #979591",
"/.	c #A3A09D",
"(.	c #4D4C4C",
"_.	c #9F9D99",
":.	c #6C6B69",
"<.	c #696967",
"[.	c #969490",
"}.	c #A7A4A1",
"|.	c #A29F9B",
"1.	c #797775",
"2.	c #7F7D7B",
"3.	c #6B6A69",
"4.	c #A7A49F",
"5.	c #A19E9B",
"6.	c #9C9995",
"7.	c #9B9895",
"8.	c #9D9A97",
"9.	c #8D8A87",
"0.	c #62605F",
"a.	c #9D9B97",
"b.	c #61605F",
"c.	c #A5A29D",
"d.	c #848380",
"e.	c #5A5959",
"f.	c #595958",
"g.	c #626261",
"h.	c #666564",
"i.	c #666664",
"j.	c #61605E",
"k.	c #555453",
"l.	c #504F4E",
"m.	c #545352",
"n.	c #605F5E",
"o.	c #8A8785",
"p.	c #7B7A78",
"q.	c #797776",
"r.	c #888684",
"s.	c #888783",
"t.	c #898682",
"u.	c #888784",
"v.	c #858280",
"w.	c #5C5B5A",
"x.	c #878482",
"y.	c #4B4A4A",
"z.	c #6B6968",
"A.	c #777473",
"B.	c #777573",
"C.	c #777472",
"D.	c #757472",
"E.	c #918E8B",
"F.	c #928F8D",
"G.	c #4F4F4E",
"H.	c #5A5958",
"I.	c #8A8885",
"J.	c #525251",
"K.	c #5B5A59",
"L.	c #868481",
"M.	c #7E7B79",
"N.	c #444343",
"O.	c #4C4B4B",
"P.	c #969290",
"Q.	c #51504F",
"R.	c #595857",
"S.	c #72716F",
"T.	c #83817E",
"U.	c #9E9B97",
"V.	c #787774",
"W.	c #4B4B4A",
"X.	c #999593",
"Y.	c #878582",
"Z.	c #716F6D",
"`.	c #767573",
" +	c #464645",
".+	c #7B7977",
"++	c #908F8B",
"@+	c #706F6D",
"#+	c #7B7A77",
"$+	c #A7A39F",
"%+	c #6E6C6A",
"&+	c #4B4B4B",
"*+	c #6A6967",
"                                                                  ",
"                                                                  ",
"                                                                  ",
"                    . +                                           ",
"                @ # $ % &                                         ",
"              * = - ; > ,                 ' @                     ",
"            & ) ! ~ { ] ^               @ / ( _                   ",
"          & : < [ [ } | ^               1 2 3 4 5                 ",
"        6 7 8 [ [ 9 } 0 _               a b ; c d e               ",
"      _ f g ; [ [ 9 h i j 7 k k k k l m n o h p q r s             ",
"    + t u [ [ [ [ [ [ v c w x x x c y z A B C D E F G a           ",
"  . H q [ [ [ [ [ [ [ [ [ [ [ [ [ [ [ I J K L M # N O P Q         ",
"R S c [ [ [ [ [ [ [ [ [ [ [ [ [ [ [ [ h T C g U   m V W > X       ",
"Y Z ~ [ [ [ [ [ [ [ [ [ [ [ [ [ [ [ [ { c i ` a      ...x +.@.    ",
"#.; [ [ [ [ [ [ [ [ [ [ [ [ [ [ [ [ 9 $.%.X &.@       *.=.-.+.;.@ ",
">.q [ [ [ [ [ [ [ [ [ [ [ [ [ [ [ [ [ ,.'.              . ).!.~.X ",
"{.].^.; [ [ [ [ [ [ [ [ [ [ [ [ [ [ [ /.+.@               (.> _.:.",
"  e <.[.}.}.[ [ [ [ [ [ [ [ [ [ [ [ 9 |.1.@               / 2._.3.",
"    6 k 8 4.9 [ [ 9 } 5.6.7.T W W 7.8.9.0.              . 2.a.K M ",
"      & b.p 9 [ [ 9 c.d.e.f.g.h.j h.i.j.k.*./ *       l.2.c > m.  ",
"        _ n.o.; [ 9 } p._ R q.r.s.t.t.s.i u.o /     ;.v.^.o m.    ",
"          5 w.x.[ [ } 0 _ y.z.A.B.C.C.D.P E.F.G.  H.I.C D.J.      ",
"            @ K.L.h [ M.^ N.O.. . . . O.m 2.P.Q.R.i C S.R         ",
"                = T.U.V.^               W.1.X.f Y.O Z.s           ",
"                   .`.b. +              / .+$.++C @+s             ",
"                                        / #+$+!.%+5               ",
"                                        &+D.7.*+5                 ",
"                                        @ G.K.6                   ",
"                                            @                     ",
"                                                                  ",
"                                                                  ",
"                                                                  ",
"                                                                  "};
