/* XPM */
static char * delete01_xpm[] = {
"33 33 191 2",
"  	c #434343",
". 	c #91911B",
"+ 	c #DFDF04",
"@ 	c #F6F601",
"# 	c #FDFD01",
"$ 	c #FEFE01",
"% 	c #F8F802",
"& 	c #D1D110",
"* 	c #8F8F27",
"= 	c #BDBD0D",
"- 	c #F8F801",
"; 	c #FFFF01",
"> 	c #FAFA02",
", 	c #C4C415",
"' 	c #B0B01C",
") 	c #FBFB02",
"! 	c #FBFB01",
"~ 	c #C2C215",
"{ 	c #DEDE0C",
"] 	c #F9F902",
"^ 	c #F7F703",
"/ 	c #4D4D3F",
"( 	c #49493F",
"_ 	c #F0F006",
": 	c #F9F903",
"< 	c #FAFA01",
"[ 	c #C6C601",
"} 	c #F0F001",
"| 	c #FFFE01",
"1 	c #EFEF01",
"2 	c #BFBF01",
"3 	c #FCFC01",
"4 	c #4B4B3D",
"5 	c #F1F105",
"6 	c #E3E301",
"7 	c #767501",
"8 	c #141400",
"9 	c #838301",
"0 	c #FDFD00",
"a 	c #FEFE00",
"b 	c #8D8D01",
"c 	c #121200",
"d 	c #6F6F01",
"e 	c #E8E801",
"f 	c #F6F603",
"g 	c #E6E608",
"h 	c #D6D601",
"i 	c #5A5A01",
"j 	c #000000",
"k 	c #252501",
"l 	c #C4C401",
"m 	c #CDCD01",
"n 	c #2E2E01",
"o 	c #535301",
"p 	c #D8D701",
"q 	c #E0E00B",
"r 	c #CBCB12",
"s 	c #E1E101",
"t 	c #595901",
"u 	c #656501",
"v 	c #515101",
"w 	c #EEEE01",
"x 	c #727201",
"y 	c #0E0E00",
"z 	c #A6A601",
"A 	c #AFAF01",
"B 	c #696901",
"C 	c #F8F803",
"D 	c #0F0F00",
"E 	c #474701",
"F 	c #E4E401",
"G 	c #EBEB01",
"H 	c #505001",
"I 	c #090900",
"J 	c #9C9C01",
"K 	c #C5C514",
"L 	c #F4F404",
"M 	c #F4F402",
"N 	c #4B4B01",
"O 	c #020200",
"P 	c #878701",
"Q 	c #FEFD00",
"R 	c #919101",
"S 	c #050400",
"T 	c #414101",
"U 	c #C0C001",
"V 	c #0A0A00",
"W 	c #292901",
"X 	c #C8C801",
"Y 	c #D1D101",
"Z 	c #323201",
"` 	c #060600",
" .	c #A0A001",
"..	c #969625",
"+.	c #797902",
"@.	c #F9F901",
"#.	c #858501",
"$.	c #5D5D01",
"%.	c #DADA0D",
"&.	c #EFEF06",
"*.	c #EFEF04",
"=.	c #343301",
"-.	c #2D2D01",
";.	c #AAAA01",
">.	c #ECEC01",
",.	c #C4C301",
"'.	c #C2C201",
").	c #E9E901",
"!.	c #B2B201",
"~.	c #353501",
"{.	c #2A2A01",
"].	c #181800",
"^.	c #080800",
"/.	c #9A9901",
"(.	c #D0D001",
"_.	c #555501",
":.	c #4F4F01",
"<.	c #A3A301",
"[.	c #0C0C00",
"}.	c #C5C501",
"|.	c #0D0D00",
"1.	c #313101",
"2.	c #E2E201",
"3.	c #717101",
"4.	c #666601",
"5.	c #E6E601",
"6.	c #3A3A01",
"7.	c #D8D801",
"8.	c #7C7C02",
"9.	c #767701",
"0.	c #9B9B02",
"a.	c #EAEA02",
"b.	c #424201",
"c.	c #E7E701",
"d.	c #A1A102",
"e.	c #878702",
"f.	c #6C6C01",
"g.	c #606001",
"h.	c #F7F701",
"i.	c #C9C901",
"j.	c #4C4C01",
"k.	c #0A0900",
"l.	c #454501",
"m.	c #C1C101",
"n.	c #E3E201",
"o.	c #B8B801",
"p.	c #B6B601",
"q.	c #E0E001",
"r.	c #E5E509",
"s.	c #A1A101",
"t.	c #999901",
"u.	c #707001",
"v.	c #9A9A01",
"w.	c #D9D90D",
"x.	c #989823",
"y.	c #D9D901",
"z.	c #040400",
"A.	c #A5A51E",
"B.	c #FCFC00",
"C.	c #7B7B01",
"D.	c #BCBB01",
"E.	c #1E1E01",
"F.	c #161600",
"G.	c #FFFE00",
"H.	c #F2F201",
"I.	c #EDED01",
"J.	c #9E9E01",
"K.	c #949401",
"L.	c #DDDD01",
"M.	c #3F3F01",
"N.	c #D4D401",
"O.	c #7F7F01",
"P.	c #010100",
"Q.	c #E2E20A",
"R.	c #5F5E02",
"S.	c #9F9F01",
"T.	c #EAEA07",
"U.	c #D8D80E",
"V.	c #AEAD01",
"W.	c #2B2B01",
"X.	c #101000",
"Y.	c #030300",
"Z.	c #3D3D01",
"`.	c #9D9D01",
" +	c #F3F201",
".+	c #F4F401",
"++	c #F1F106",
"@+	c #989824",
"#+	c #BBBB18",
"$+	c #E8E808",
"%+	c #A8A81E",
"                      . + @ # $ $ $ $ % & *                       ",
"                  = - ; ; ; ; ; ; ; ; ; ; ; > ,                   ",
"              ' ) ; ; ; ; ; ; ; ; ; ; ; ; ; ; ; ! ~               ",
"            { ; ] $ ; ; ; ; ; ; ; ; ; ; ; ; ; $ ; ; ^ /           ",
"        ( _ ; : < [ } | ; ; ; ; ; ; ; ; ; ; | 1 2 3 ; ^ 4         ",
"        5 ; ; 6 7 8 9 0 ; ; ; ; ; ; ; ; ; ; a b c d e ; f         ",
"      g ; a h i j j k l a ; ; ; ; ; ; ; ; a m n j j o p ; q       ",
"    r ; ; s t j j j j u @ ; ; ; ; ; ; ; ; < d j j j j v w ; '     ",
"    ! # < x j j j j j y z a ; ; ; ; ; ; a A 8 j j j j j B < )     ",
"  , ; C z D j j j j j j E F $ ; ; ; ; a G H j j j j j j I J ; K   ",
"  L ; M N j j j j j j j O P Q ; ; ; ; a R S j j j j j j j T 1 3   ",
"* ; $ U V j j j j j j j j W X a ; ; a Y Z j j j j j j j j `  .$ ..",
"& ; ^ B j j j j j j j j j j +.@.a a ! #.j j j j j j j j j j $.$ %.",
"&.; *.=.j j j j j j j j j -.;.>.,.'.).!.~.j j j j j j j j j {.$ 5 ",
") ; s ].j j j j j j j j ^./.(._.D y :.X <.[.j j j j j j j j c ; ] ",
"$ ; }.|.j j j j j j j j 1.2.3.j j j j 4.5.6.j j j j j j j j ^.; $ ",
"$ ; 7.8.9.9.9.9.9.9.9.9.0.a.b.j j j j ~.c.d.9.9.9.9.9.9.9.9.e.; ; ",
"$ ; a # 0 0 0 0 0 0 0 0 0 < f.j j j j g.h.0 0 0 0 0 0 0 0 0 a ; $ ",
"3 ; ; ; ; ; ; ; ; ; ; ; ; a i.j.k.I l.m.a ; ; ; ; ; ; ; ; ; ; ; ) ",
"% ; ; ; ; ; ; ; ; ; ; ; ; ; 0 n.o.p.q.3 ; ; ; ; ; ; ; ; ; ; ; ; &.",
"r.; ; ; ; ; ; ; ; ; ; ; ; a s.d t.0.u.v.a ; ; ; ; ; ; ; ; ; ; ; w.",
"x.; ; ; ; ; ; ; ; ; ; ; | y.6.j z.z.j 1.(.a ; ; ; ; ; ; ; ; ; ; A.",
"  > ; ; ; ; ; ; ; ; ; | B.C.j j j j j j 3.< ; ; ; ; ; ; ; ; ; $   ",
"  , ; ; ; ; ; ; ; ; ; a D.E.j j j j j j F.!.a ; ; ; ; ; ; ; ; {   ",
"    ) ; ; ; ; ; ; ; G.H.$.j j j j j j j j o I.; ; ; ; ; ; ; $     ",
"    ' ; ; ; ; ; ; ; a J.V j j j j j j j j ` K.a ; ; ; ; ; ; r     ",
"      q ; ; ; ; ; a L.M.j j j j j j j j j j ~.N.a ; ; ; ; q       ",
"        &.# ; ; ; # O.P.j j j j j j j j j j j 7 ! ; ; ; &.        ",
"        ( Q.; ; ; I.R.^.j j j j j j j j j j ` S.! ; ; T.(         ",
"            U.; ; ; - V.g.W.X.` Y.Y.` D Z.`.>.; ; ; K             ",
"              ' > ; ; ; ;  +w .+I.7.s 3 ; ; ; ; ++@+              ",
"                  , > ; ; ; ; ; ; ; ; ; ; ; # #+                  ",
"                      * & &.) $ $ $ $ > $+%+                      "};
