/* XPM */
static char * garrett_xpm[] = {
"33 33 199 2",
"  	c #686868",
". 	c #696969",
"+ 	c #646464",
"@ 	c #626262",
"# 	c #5E5E5E",
"$ 	c #585858",
"% 	c #606060",
"& 	c #777777",
"* 	c #7D7D7D",
"= 	c #767676",
"- 	c #808080",
"; 	c #6B6B6B",
"> 	c #656565",
", 	c #717171",
"' 	c #727272",
") 	c #787878",
"! 	c #5A5A5A",
"~ 	c #3E3E3E",
"{ 	c #333333",
"] 	c #343434",
"^ 	c #393939",
"/ 	c #373737",
"( 	c #3D3D3D",
"_ 	c #434343",
": 	c #454545",
"< 	c #3F3F3F",
"[ 	c #676767",
"} 	c #5D5D5D",
"| 	c #6C6C6C",
"1 	c #8A8A8A",
"2 	c #8B8B8B",
"3 	c #818181",
"4 	c #898989",
"5 	c #848484",
"6 	c #747474",
"7 	c #6E6E6E",
"8 	c #6A6A6A",
"9 	c #5F5F5F",
"0 	c #666666",
"a 	c #4D4D4D",
"b 	c #383838",
"c 	c #323232",
"d 	c #363636",
"e 	c #3A3A3A",
"f 	c #424242",
"g 	c #3B3B3B",
"h 	c #2D2D2D",
"i 	c #616161",
"j 	c #636363",
"k 	c #6D6D6D",
"l 	c #888888",
"m 	c #757575",
"n 	c #6F6F6F",
"o 	c #737373",
"p 	c #525252",
"q 	c #353535",
"r 	c #262626",
"s 	c #7E7E7E",
"t 	c #8F8F8F",
"u 	c #575757",
"v 	c #404040",
"w 	c #3C3C3C",
"x 	c #2F2F2F",
"y 	c #212121",
"z 	c #5B5B5B",
"A 	c #565656",
"B 	c #4F4F4F",
"C 	c #555555",
"D 	c #7F7F7F",
"E 	c #8D8D8D",
"F 	c #9C9C9C",
"G 	c #A9A9A9",
"H 	c #ACACAC",
"I 	c #7B7B7B",
"J 	c #7C7C7C",
"K 	c #292929",
"L 	c #1F1F1F",
"M 	c #5C5C5C",
"N 	c #797979",
"O 	c #959595",
"P 	c #A1A1A1",
"Q 	c #A6A6A6",
"R 	c #ABABAB",
"S 	c #B4B4B4",
"T 	c #B9B9B9",
"U 	c #BCBCBC",
"V 	c #BEBEBE",
"W 	c #AAAAAA",
"X 	c #838383",
"Y 	c #4A4A4A",
"Z 	c #BABABA",
"` 	c #C0C0C0",
" .	c #C5C5C5",
"..	c #C7C7C7",
"+.	c #C8C8C8",
"@.	c #C3C3C3",
"#.	c #C2C2C2",
"$.	c #BDBDBD",
"%.	c #999999",
"&.	c #313131",
"*.	c #9E9E9E",
"=.	c #AFAFAF",
"-.	c #B8B8B8",
";.	c #BBBBBB",
">.	c #BFBFBF",
",.	c #A5A5A5",
"'.	c #868686",
").	c #545454",
"!.	c #919191",
"~.	c #A2A2A2",
"{.	c #ADADAD",
"].	c #C1C1C1",
"^.	c #B3B3B3",
"/.	c #949494",
"(.	c #828282",
"_.	c #474747",
":.	c #414141",
"<.	c #4E4E4E",
"[.	c #7A7A7A",
"}.	c #8E8E8E",
"|.	c #C6C6C6",
"1.	c #CBCBCB",
"2.	c #C9C9C9",
"3.	c #B5B5B5",
"4.	c #989898",
"5.	c #4C4C4C",
"6.	c #535353",
"7.	c #9A9A9A",
"8.	c #C4C4C4",
"9.	c #CACACA",
"0.	c #2B2B2B",
"a.	c #2E2E2E",
"b.	c #909090",
"c.	c #A7A7A7",
"d.	c #AEAEAE",
"e.	c #B0B0B0",
"f.	c #4B4B4B",
"g.	c #494949",
"h.	c #272727",
"i.	c #1E1E1E",
"j.	c #A0A0A0",
"k.	c #A8A8A8",
"l.	c #939393",
"m.	c #A3A3A3",
"n.	c #9D9D9D",
"o.	c #515151",
"p.	c #A4A4A4",
"q.	c #2A2A2A",
"r.	c #232323",
"s.	c #858585",
"t.	c #505050",
"u.	c #464646",
"v.	c #8C8C8C",
"w.	c #444444",
"x.	c #979797",
"y.	c #969696",
"z.	c #B2B2B2",
"A.	c #B1B1B1",
"B.	c #595959",
"C.	c #B7B7B7",
"D.	c #B6B6B6",
"E.	c #707070",
"F.	c #484848",
"G.	c #F2F2F2",
"H.	c #F3F3F3",
"I.	c #D6D6D6",
"J.	c #222222",
"K.	c #EEEEEE",
"L.	c #FAFAFA",
"M.	c #FFFFFF",
"N.	c #FEFEFE",
"O.	c #E9E9E9",
"P.	c #1A1A1A",
"Q.	c #141414",
"R.	c #111111",
"S.	c #9B9B9B",
"T.	c #D0D0D0",
"U.	c #DDDDDD",
"V.	c #2C2C2C",
"W.	c #1C1C1C",
"X.	c #171717",
"Y.	c #161616",
"Z.	c #131313",
"`.	c #E5E5E5",
" +	c #1D1D1D",
".+	c #181818",
"++	c #D2D2D2",
"@+	c #CCCCCC",
"#+	c #D7D7D7",
"$+	c #202020",
"%+	c #1B1B1B",
"&+	c #EDEDED",
"*+	c #F4F4F4",
"=+	c #CDCDCD",
"-+	c #DFDFDF",
";+	c #303030",
">+	c #DEDEDE",
",+	c #282828",
"'+	c #242424",
"  .   + @ # $ % & * & = - ; > = , ' ) = ! ~ { ] ^ ^ { / ( _ : < { ",
"  . [ + @ } | 1 2 3 4 5 * 6 7 8 9 0 ; , 9 9 a b b b c d e f _ g h ",
"> 0 > i j k - l 3 m ; ; k n ; [ 0 k = m # = o p < e / ^ b < ( q r ",
"@ j @ # + 6 6 0 9 j > 0 [ 8   | m s 2 t ) k m n u v / g w e d x y ",
"9 @ i # . 7 # z A B C j 8 k ' D E F G H 2 = I J s j ^ e w g { K L ",
"9 i i + k 8 M % [ N 4 O F P Q R S T U V W 4 s I X D Y ( w ~ c K y ",
"i % j 8 . [ ; , 1 Q S Z U `  ...+...@.#.$.%.s m o 5 # ~ ( < / &.K ",
"[ + > + 9 o l 2 *.=.-.;.Z $.@. .@.>.` #.` ,.'.& 7 X | f f _ < ^ ] ",
"; 8 8 u ).) !.%.~.{.S T -.Z V #...@.` ].>.^./.D = (.' _.f :.w ^ q ",
"| k 0 <.u [.}.%.~.S ;.U V ` @.|.1.1.2...>.3.4.I , , 7 5.:.< ^ c h ",
"n 7 9 f 6.N 4 7.W T >.8.....2.2.|...9.9. .U %.@ C <.} <.f < { 0.y ",
", 7 } a.g n b.c.d.e.e.3.` 8.` S G ~.,.^.U ].H > _.f.<.g.~ b x h.i.",
"7 | j x x o j.k.l.l '.4 %.m.n.D @ o.i '.p.3.3.}.z # ' J : c x q.r.",
"|   0 f q I !.I C :.< 5.. - D ! e / _.A 7 t {.P 0   s.N t.b q { a.",
"| > > ! ( m o ! : { a.&.z O !.# Y _.u.).Y 8 P d.[.= v.[ u w g g b ",
"0 @ 7 I <.8 A v g.w.g.5.n -.;.!.J = & E 2 x.^.V y.6 2 1 9 w.:.f < ",
"i 9 @ p 5.= ' 8 N 6 & - E U ..z.c.*.F p.3.>.@.#.A.}.!.O z 5.5.f.5.",
"u 6.B.p z '.F p.m.x.O x.O S @.T -.C.V ]. .#.8.].e.7.G l.9 C ).).).",
"a <.p } n v.j.e.C.z.p.x.O S +.;.R x.Q ;.#.$.Z D.F O U }.$ ).$ B.! ",
"a <.o.! k (.F d.A.Q t t O =.8.@.-.* & O G {.R W x.7.@.y.0 # M M # ",
"a 5.5.o.+ ' !.%.O - 8 3 s.l.Q %.1 E.j 8 s./.%.~.j./.x.~.}.8 + @ i ",
"f.Y g.5.. E.o m ' # + @ F.t.M z ' E & ! j (.E 4.F ).M /.j.l.k   + ",
":._ u.g.% , % # ! $ | 7 # 5.5.8 !.x.D % % s 4 /.O < z 4 /.,.l > j ",
"f : g.Y <.B.! z ! C o.} 9 C C [ m n B B ).u = N & 6.> m [.D '.6 B ",
"g.f.o.} 9 ! ).# . i F.w ).o (.v.v.[.6 [.[.d.$.G.H.H.H.H.H.H.I.` 2 ",
"6.M z f.d J.a.C . I s E.n J 5 s l x.~./.s K.1.2.L.M.M.M.N.1.9.O.@.",
"0 g.q.P.Q.R.P.g 6.8 s s.- & m N l S.P O D K.N.T.9.U.M.N.9.1.N.M. .",
"z V.W.X.Y.X.Z.r _ ).' s.(.[.E.) 1 7.j.7.- K.M.M.`.d.@.;.~.N.M.M.|.",
"e r. +P..+P.L d g _ + '.x.4.7.p.H e.W /.6 K.M.++@+T.#+U.2.2.N.M.|.",
"0.$+%+.+r a 6._.q u.g.7 E y.y.%.4.x.1 ; i &+9.1.*+M.M.M.N.=++.-+ .",
"&.r W.$+A   B / ;+o.f e t.# j } u p a g.# d.$.G.G.G.G.G.G.G.>+>.'.",
"a &.W.0.% @ w.r.q.g.6.q ,+h.,+0.h c :.p i k = . Y C $ B.@ ; , , , ",
"% u : f.@ u < r.a.v B.5./ 0.'+r q./ B j 7 ' E.! u.C p 9 ; , ' E.  "};
