/* XPM */
static char * list_alembic_tags_xpm[] = {
"33 33 211 2",
"  	c None",
". 	c #343434",
"+ 	c #363636",
"@ 	c #4B4B4B",
"# 	c #5F5F60",
"$ 	c #666767",
"% 	c #676768",
"& 	c #5C5C5D",
"* 	c #4B4B4C",
"= 	c #4D4D4D",
"- 	c #777777",
"; 	c #919293",
"> 	c #909192",
", 	c #727374",
"' 	c #4E4E4E",
") 	c #434343",
"! 	c #818282",
"~ 	c #8F9091",
"{ 	c #838485",
"] 	c #4D4D4E",
"^ 	c #5B5B5C",
"/ 	c #909091",
"( 	c #6A6A6B",
"_ 	c #373737",
": 	c #585859",
"< 	c #858687",
"[ 	c #3A3A3A",
"} 	c #3B3B3B",
"| 	c #8A8A8B",
"1 	c #383839",
"2 	c #808182",
"3 	c #959697",
"4 	c #A2A3A4",
"5 	c #A8A9AA",
"6 	c #A9AAAA",
"7 	c #A5A5A6",
"8 	c #999A9A",
"9 	c #787979",
"0 	c #474747",
"a 	c #F1F1F1",
"b 	c #9B9C9D",
"c 	c #D1D1D1",
"d 	c #FCFCFC",
"e 	c #E3E4E4",
"f 	c #E3E3E3",
"g 	c #F2F2F3",
"h 	c #E8E8E8",
"i 	c #AFB0B1",
"j 	c #5D5E5E",
"k 	c #535353",
"l 	c #F7F7F7",
"m 	c #9C9D9D",
"n 	c #E0E1E1",
"o 	c #AAABAC",
"p 	c #424242",
"q 	c #555556",
"r 	c #979899",
"s 	c #C0C1C1",
"t 	c #EEEFEF",
"u 	c #A6A7A7",
"v 	c #545454",
"w 	c #F8F8F8",
"x 	c #9D9D9E",
"y 	c #B5B6B6",
"z 	c #EEEEEE",
"A 	c #949495",
"B 	c #393939",
"C 	c #383939",
"D 	c #747575",
"E 	c #929394",
"F 	c #353535",
"G 	c #545455",
"H 	c #CACACB",
"I 	c #8C8D8E",
"J 	c #8D8E8F",
"K 	c #868687",
"L 	c #606061",
"M 	c #505050",
"N 	c #FBFCFC",
"O 	c #BCBCBD",
"P 	c #444444",
"Q 	c #F6F7F7",
"R 	c #F2F3F3",
"S 	c #C5C5C6",
"T 	c #909092",
"U 	c #686869",
"V 	c #676868",
"W 	c #4F4F4F",
"X 	c #F5F5F5",
"Y 	c #B8B8B9",
"Z 	c #F4F5F5",
"` 	c #777879",
" .	c #7E7F80",
"..	c #F2F2F2",
"+.	c #797A7A",
"@.	c #F3F3F3",
"#.	c #909090",
"$.	c #484848",
"%.	c #555656",
"&.	c #8E8F90",
"*.	c #7F7F80",
"=.	c #6D6E6E",
"-.	c #7C7D7D",
";.	c #4A4A4A",
">.	c #CECECE",
",.	c #FEFEFE",
"'.	c #959595",
").	c #7A7B7C",
"!.	c #7E7F7F",
"~.	c #878889",
"{.	c #A0A1A1",
"].	c #9E9E9E",
"^.	c #E2E2E2",
"/.	c #BBBCBC",
"(.	c #777778",
"_.	c #7A7A7B",
":.	c #5C5C5C",
"<.	c #515151",
"[.	c #626363",
"}.	c #636464",
"|.	c #616262",
"1.	c #888889",
"2.	c #383838",
"3.	c #D7D8D8",
"4.	c #7D7E7F",
"5.	c #606060",
"6.	c #717273",
"7.	c #5A5A5A",
"8.	c #575757",
"9.	c #5E5F5F",
"0.	c #4F5050",
"a.	c #C3C3C4",
"b.	c #6B6C6D",
"c.	c #8B8C8D",
"d.	c #414141",
"e.	c #69696A",
"f.	c #868788",
"g.	c #7B7C7D",
"h.	c #C9C9CA",
"i.	c #EAEAEA",
"j.	c #585858",
"k.	c #767778",
"l.	c #6D6D6E",
"m.	c #434344",
"n.	c #494949",
"o.	c #646565",
"p.	c #49494A",
"q.	c #4C4C4C",
"r.	c #BEBEBF",
"s.	c #ECECEC",
"t.	c #939495",
"u.	c #626263",
"v.	c #808081",
"w.	c #898A8B",
"x.	c #464646",
"y.	c #5B5C5C",
"z.	c #8A8B8C",
"A.	c #404040",
"B.	c #414142",
"C.	c #565757",
"D.	c #4C4D4D",
"E.	c #D2D3D3",
"F.	c #E4E5E5",
"G.	c #3F3F40",
"H.	c #939494",
"I.	c #7B7B7C",
"J.	c #78797A",
"K.	c #747475",
"L.	c #5B5C5D",
"M.	c #BDBEBF",
"N.	c #6B6C6C",
"O.	c #98999A",
"P.	c #3E3E3E",
"Q.	c #858586",
"R.	c #969697",
"S.	c #3F3F3F",
"T.	c #707171",
"U.	c #EBECEC",
"V.	c #474848",
"W.	c #6C6D6D",
"X.	c #9A9B9C",
"Y.	c #E8E9E9",
"Z.	c #E9E9EA",
"`.	c #757677",
" +	c #F9F9F9",
".+	c #F4F4F4",
"++	c #F7F8F8",
"@+	c #676767",
"#+	c #B5B5B6",
"$+	c #E5E5E6",
"%+	c #F6F6F6",
"&+	c #BDBDBE",
"*+	c #373738",
"=+	c #8C8C8D",
"-+	c #575858",
";+	c #5E5E5F",
">+	c #7A7B7B",
",+	c #ABABAC",
"'+	c #454545",
")+	c #565657",
"!+	c #3E3E3F",
"~+	c #767777",
"{+	c #4A4B4B",
"]+	c #818283",
"^+	c #878788",
"/+	c #737475",
"(+	c #454646",
"_+	c #3C3C3C",
":+	c #5E5E5E",
"<+	c #7C7D7E",
"[+	c #868688",
". . . . . . . . . . . . . . . . . . . . . . . . . . . . . . . . . ",
". . . . . . . . . . . . + @ # $ % % & * . . . . . . . . . . . . . ",
". . . . . . . . . . = - ; > > ; ; > > > > , ' + . . . . . . . . . ",
". . . . . . . . ) ! > > > ; ; ; ; ; ; ; > > ~ { ] . . . . . . . . ",
". . . . . . . ^ > > > ; ; ; ; ; ; ; ; ; ; ; / > > ( _ . . . . . . ",
". . . . . . : > > > ; ; ; ; ; ; ; ; ; ; ; ; ; > > > < [ . . . . . ",
". . . . . } > > ; ; ; ; ; ; ; ; ; ; ; ; ; ; ; ; ; > > | 1 . . . . ",
". . . . . 2 > > ; ; ; ; ; ; ; ; ; ; ; ; ; 3 4 5 6 7 8 > 9 . . . . ",
". . . . 0 a b ; ; ; ; ; ; ; ; ; ; ; ; ; c d d e f g d h i j . . . ",
". . . . k l m ; ; ; ; ; ; ; ; ; ; ; ; n h o p . . q r s t u } . . ",
". . . . v w x ; ; ; ; ; ; ; ; ; ; ; y z A ~ j B [ C D > E E : . . ",
". . B F G l x ; ; ; ; ; ; ; ; ; ; ; h H ; > > I J I ~ > ; > K . . ",
". . L . M w m ; ; ; ; ; ; ; ; ; ; ; N O ; ; ; ; ; ; ; ; ; > > ) . ",
". p # . P Q x ; ; ; ; ; ; ; ; ; ; ; R S ; ; ; ; ; ; ; ; ; T > U . ",
". V W . p X m > ; ; ; ; ; ; ; ; ; > Y Z ; > ; > > > > ; ; ; > ` . ",
".  .= . p ..+.> > ; ; ; ; ; ; ; ; > > S @.#.$._ %.&.> ; ; ; > ! . ",
". *.0 . p ..@ =.> > > ; ; ; ; > > -.* . ;.>.,.f '.= ).> > ; ; ! . ",
". !.' . p ..;.. ' ~.> > > > > ~ : . . p -.J r {.].c ^./.> ; ; ! . ",
". (.^ . _.X :.. . . 0 <.[.}.= _ . . |.; ; 1.2 > < 2.M a 3.; > 4.. ",
". 5.6.j > ..;.. . . . . . . . . . 7.> ~ 8.. . 9.; [.. 0.l a.> b.. ",
". @ ~ c.+...;.. . . d.9.L ) . . + &.> e.. . . . f.g.. 0 h.i.> j.. ",
". . c.> k...;.. . l.> > ~ ; ^ . } > ; m.. m.n.o.; p.. q.r.s.t.. . ",
". . u.> v...;.. v > w.M x.y.z.+ A.> ; B.. . <.C.D.. . -.E.F.l.. . ",
". . G.c.H...;.. I.> = . . . J.[ B > y K.. . . . . . L.3 w M.P . . ",
". . . N.O.X v P.Q.R.;.S.S.S.q.+ . T.z U.1.V.. . 2.W.X.Y.Z.`.. . . ",
". . . . J w  +.+++w X .+.+.+@.@+. . z.#+U.w i.$+h .+%+&+J *+. . . ",
". . . . P =+z.-+;+> >+. . . . . . . A.J.; E ,+Y Y 4 > &.;.. . . . ",
". . . . . '+J > Q.~ > [.. . . . . . . . x.o.I ; > > &.)+. . . . . ",
". . . . . . P c.> > ~ > *.q !+. . . . _ G ~+J > > &.{+. . . . . . ",
". . . . . . . . `.~ > > > ; > z.]+]+^+> > > > ~ I.2.. . . . . . . ",
". . . . . . . . . P /+; > ; ; > ; ; > > > ; >+(+F . . . . . . . . ",
". . . . . . . . . . . _+:+<+{ f.[+f.! <+[.S.. . . . . . . . . . . ",
". . . . . . . . . . . . . . _ B B B + . . . . . . . . . . . . . . "};
