/* XPM */
static char * roll_xpm[] = {
"33 33 82 1",
" 	c None",
".	c #424242",
"+	c #394854",
"@	c #3A4852",
"#	c #3A4751",
"$	c #3A4853",
"%	c #394853",
"&	c #0D6CB5",
"*	c #0D6BB5",
"=	c #1267A9",
"-	c #404244",
";	c #0C6BB4",
">	c #414242",
",	c #404345",
"'	c #3D454B",
")	c #0E6AAF",
"!	c #0D6BB3",
"~	c #295575",
"{	c #3F4447",
"]	c #3F4346",
"^	c #344C5F",
"/	c #0D6BB4",
"(	c #384957",
"_	c #3D454A",
":	c #3B4750",
"<	c #0D6AB4",
"[	c #245981",
"}	c #364B5A",
"|	c #18629A",
"1	c #2B5372",
"2	c #1B6095",
"3	c #384956",
"4	c #0D6CB4",
"5	c #374A58",
"6	c #0C6AB4",
"7	c #0D6BB2",
"8	c #0C6BB5",
"9	c #26577D",
"0	c #414243",
"a	c #0C6AB3",
"b	c #205C89",
"c	c #2A5373",
"d	c #0E6BB2",
"e	c #2C5270",
"f	c #3C464D",
"g	c #0E68AE",
"h	c #0F6AB0",
"i	c #27577C",
"j	c #404346",
"k	c #25577E",
"l	c #2A5474",
"m	c #1168AB",
"n	c #344C5E",
"o	c #1466A4",
"p	c #0C6CB4",
"q	c #0F68AB",
"r	c #26577C",
"s	c #3F4347",
"t	c #0C6CB5",
"u	c #27567B",
"v	c #2A5475",
"w	c #1466A5",
"x	c #1A6198",
"y	c #0E6AB0",
"z	c #1167A7",
"A	c #285679",
"B	c #295475",
"C	c #1564A1",
"D	c #205C8B",
"E	c #1069AD",
"F	c #1365A4",
"G	c #295576",
"H	c #16649F",
"I	c #0C6AB2",
"J	c #1D5E90",
"K	c #2B5373",
"L	c #0C6BB3",
"M	c #1465A4",
"N	c #18639B",
"O	c #314E63",
"P	c #324D62",
"Q	c #354C5D",
".................................",
".................................",
".................................",
".................................",
"....+@@@@@@@@@@#......$@@@@@@@%..",
"....&&&&&&&&&&*=.....-;&&&&&&*;>.",
"....,')!&&&&&~{,......,]^/&//(,..",
"......_;&&&&&(...........!&*:....",
".......&&&&&<[..........};&|.....",
".......1/&&&&&..........2&&3.....",
".......,&&&&&45........><6&-.....",
"........78&&&/9........0a/b......",
"........c*&&&&d........e&&f......",
"........./&&&&&(.......g&&>......",
".........h&&&&*i......j&/k.......",
".........l4&&&&m......n<&j.......",
"..........!&&&&;%.....op/>.......",
"..........q&&&&4r....sptu........",
"..........v8&&&&w....54/.........",
".........../&&&&&f...xty.........",
"...........z&&&&&9..j4*A.........",
"...........B&&&&&C..3&/..........",
"............/&&&&&].D&E..........",
"............F&&&&4i>;;G..........",
"............B4&&&aH+&I...........",
".............t&&&&tJ;=...........",
".............H/&&&/&4K...........",
".............l;&&&&&L............",
"..............t&&&&6M............",
"..............N/&&&;e............",
"..............1&&&&&.............",
"..............-OPPPQ.............",
"................................."};
