/* XPM */
static char * savebutton_xpm[] = {
"33 33 217 2",
"  	c #000000",
". 	c #020202",
"+ 	c #0B0B0B",
"@ 	c #141414",
"# 	c #1E1E1E",
"$ 	c #242424",
"% 	c #171717",
"& 	c #030303",
"* 	c #151515",
"= 	c #1F1F1F",
"- 	c #202020",
"; 	c #282828",
"> 	c #1A1A1A",
", 	c #040404",
"' 	c #010101",
") 	c #131313",
"! 	c #353535",
"~ 	c #373737",
"{ 	c #2D2D2D",
"] 	c #212121",
"^ 	c #464646",
"/ 	c #161616",
"( 	c #121212",
"_ 	c #222222",
": 	c #1B1B1B",
"< 	c #3F3F3F",
"[ 	c #313131",
"} 	c #090909",
"| 	c #080808",
"1 	c #060606",
"2 	c #181818",
"3 	c #333333",
"4 	c #484848",
"5 	c #434343",
"6 	c #2B2B2B",
"7 	c #3D3D3D",
"8 	c #262626",
"9 	c #2A2A2A",
"0 	c #4C4C4C",
"a 	c #3E3E3E",
"b 	c #272727",
"c 	c #070707",
"d 	c #404040",
"e 	c #474747",
"f 	c #383838",
"g 	c #575757",
"h 	c #2E2E2E",
"i 	c #292929",
"j 	c #3C3C3C",
"k 	c #343434",
"l 	c #3A3A3A",
"m 	c #232323",
"n 	c #191919",
"o 	c #050505",
"p 	c #4A4A4A",
"q 	c #8B8B8B",
"r 	c #6C6C6C",
"s 	c #606060",
"t 	c #2F2F2F",
"u 	c #111111",
"v 	c #393939",
"w 	c #414141",
"x 	c #4E4E4E",
"y 	c #747474",
"z 	c #535353",
"A 	c #818181",
"B 	c #696969",
"C 	c #363636",
"D 	c #323232",
"E 	c #898989",
"F 	c #A2A2A2",
"G 	c #757575",
"H 	c #A8A8A8",
"I 	c #5E5E5E",
"J 	c #0A0A0A",
"K 	c #424242",
"L 	c #4F4F4F",
"M 	c #525252",
"N 	c #787878",
"O 	c #959595",
"P 	c #7F7F7F",
"Q 	c #9E9E9E",
"R 	c #C9C9C9",
"S 	c #7E7E7E",
"T 	c #9B9B9B",
"U 	c #626262",
"V 	c #595959",
"W 	c #666666",
"X 	c #1D1D1D",
"Y 	c #555555",
"Z 	c #303030",
"` 	c #E0E0E0",
" .	c #FFFFFF",
"..	c #F7F7F7",
"+.	c #AAAAAA",
"@.	c #EBEBEB",
"#.	c #494949",
"$.	c #6F6F6F",
"%.	c #D3D3D3",
"&.	c #ACACAC",
"*.	c #858585",
"=.	c #9A9A9A",
"-.	c #BBBBBB",
";.	c #0D0D0D",
">.	c #545454",
",.	c #0E0E0E",
"'.	c #565656",
").	c #999999",
"!.	c #D8D8D8",
"~.	c #AEAEAE",
"{.	c #B6B6B6",
"].	c #717171",
"^.	c #6B6B6B",
"/.	c #737373",
"(.	c #4B4B4B",
"_.	c #8E8E8E",
":.	c #A6A6A6",
"<.	c #B1B1B1",
"[.	c #BDBDBD",
"}.	c #DDDDDD",
"|.	c #585858",
"1.	c #505050",
"2.	c #8A8A8A",
"3.	c #F3F3F3",
"4.	c #CFCFCF",
"5.	c #4D4D4D",
"6.	c #454545",
"7.	c #979797",
"8.	c #676767",
"9.	c #646464",
"0.	c #6D6D6D",
"a.	c #9C9C9C",
"b.	c #767676",
"c.	c #101010",
"d.	c #848484",
"e.	c #909090",
"f.	c #A9A9A9",
"g.	c #727272",
"h.	c #656565",
"i.	c #2C2C2C",
"j.	c #252525",
"k.	c #BEBEBE",
"l.	c #E8E8E8",
"m.	c #C7C7C7",
"n.	c #444444",
"o.	c #3B3B3B",
"p.	c #5D5D5D",
"q.	c #828282",
"r.	c #B5B5B5",
"s.	c #F2F2F2",
"t.	c #878787",
"u.	c #868686",
"v.	c #8D8D8D",
"w.	c #FDFDFD",
"x.	c #5F5F5F",
"y.	c #797979",
"z.	c #7B7B7B",
"A.	c #5B5B5B",
"B.	c #0F0F0F",
"C.	c #CACACA",
"D.	c #E1E1E1",
"E.	c #FEFEFE",
"F.	c #EEEEEE",
"G.	c #929292",
"H.	c #A4A4A4",
"I.	c #515151",
"J.	c #919191",
"K.	c #636363",
"L.	c #969696",
"M.	c #F5F5F5",
"N.	c #B2B2B2",
"O.	c #CECECE",
"P.	c #EAEAEA",
"Q.	c #616161",
"R.	c #7C7C7C",
"S.	c #B4B4B4",
"T.	c #E4E4E4",
"U.	c #ABABAB",
"V.	c #9F9F9F",
"W.	c #E9E9E9",
"X.	c #6E6E6E",
"Y.	c #B8B8B8",
"Z.	c #8F8F8F",
"`.	c #0C0C0C",
" +	c #686868",
".+	c #808080",
"++	c #949494",
"@+	c #5A5A5A",
"#+	c #1C1C1C",
"$+	c #7D7D7D",
"%+	c #C5C5C5",
"&+	c #B0B0B0",
"*+	c #7A7A7A",
"=+	c #5C5C5C",
"-+	c #838383",
";+	c #E7E7E7",
">+	c #BABABA",
",+	c #939393",
"'+	c #777777",
")+	c #6A6A6A",
"!+	c #DBDBDB",
"~+	c #E5E5E5",
"{+	c #C3C3C3",
"]+	c #D7D7D7",
"^+	c #C4C4C4",
"/+	c #A1A1A1",
"(+	c #BCBCBC",
"_+	c #DCDCDC",
":+	c #D0D0D0",
"<+	c #FAFAFA",
"[+	c #C0C0C0",
"}+	c #D1D1D1",
"|+	c #C2C2C2",
"1+	c #EDEDED",
"2+	c #C8C8C8",
"3+	c #707070",
"4+	c #A7A7A7",
"    . + @ # $ % &       & * = - ; > ,                         '   ",
"  . ) ! ~ { ] ^ /       ( _ : _ < [ # ,       ' } |       1 2 # * ",
"& 2 - - 3 4 5 < *   &   > 6 7 < 8 9 2 '       8 0 a b   c 9 d ^ e ",
"b 5 7 f a g a h i ! j k l 5 /       , / m n o p q r s   ( 7 ^ { t ",
"c : n u # v w x h n 9 y z g A B C 9 6 D w E F G H y I   - D d J & ",
"      + [ x K @ i L M N O P Q R S p T U D x A E T V W   X < Y f . ",
"    & # Z 2 1 C g P `  ...Q +.@.#.$.%.&.q *.=.-.r G g   ;.< 5 >., ",
"    1 ,.c   t '.)...!.~.{.].^./.(._.:.<.[.}. .{./.3     } t |.1.& ",
"  . 2 $ ;.J 4 2.3.4.x ^ 7 5.6.! V w d p 5.e 7.[.8.z 3 * 9 s 9._   ",
"    ;.m # Z 0.=.a.b.8.L L [ ) m Y 9 c.u < d.^ e.f.g.h.6 { f i.}   ",
"    o > j.Y h.].k.l.m.4 n.k X o.|.6.D D < l p.p.q.^.G 6 # h w 6.& ",
".     o o.'.8./.r.3.s.t.B 7 n.(.p % / ~ _ c c V n.#.u.D o.# i.|.@ ",
"t 1   o { 8.2.r '.v.w.T x.6 ( Z m > = { j.t = ;.#.y.z._ D 3 #.A.> ",
"! * B.* l B U O C.D.E.F._.p.n.M = ;.+ u > 8 $ | 1 { z p d _ 7 Y + ",
": # - j.~ L L L Q  . . ...G.0 H.b.t 9 i @   . . . X [ 6 # C 0 6   ",
", = b v B I.7 e ! $.F. .J.j O 3.%.H./.(.7 [ n c c.- { ~ l [ k B.} ",
"        * K.A.n.(.Z p s ] L.M. . . .E.@.N.K.~ ~ U |.7 g C | ;.o.[ ",
"c.8 }       i (.4 e z A.$.J.~.O.P.M. . . . .Q.#.^.e J   i i.a e : ",
"c 3 9 @ 1 # B.,.# < k n.V L f o.0 R.S.T. .@.L y +.U.g u / 6.8.l 1 ",
"1 i.7 C i $ #.M V f     o : ! 5 K 5.p V V.W.h.X.Y.Z.5.h.% 0 5.) . ",
"' $ ! (.n.`.k Z g @   & $ a j v a 7 z x.4  +k.v..+++ +h.p 4 0 v 2 ",
"  } i >.o.6.>.I.@+* & t z ; 1 . #+~ b ; h.4 $+%+&+:.h.~ O *+K p #.",
"    B.< =+*+-+A.p ! n x f 3 _ ] ; + X 6 n U I {.;+W.>+I.h.; , > u ",
"  ,.< I.Z A }.,+'+o.'.l 4 0 8 7 v o u ~ x )+0.%. ...V.#.)+{ &     ",
"' 9 4 # : x.!+E 1.p '.4 h / 2 ! =   ] K ]./.g ~+ .P.Q.p.V K c.    ",
"1 n.e ~ 9.p.++{+g w L y.6.Z _ X ( 8 =+B E ^ q... .]+7 M k I.2     ",
";.4 L K ] I Y ^+/+M Q W 9.B g n.5.)+=+g.&.=.2 z.~+S K n.i #.B.;.  ",
"1 ~ x 9 . v e (+%+_+:+g.K.9.W ^.I K./.{.<+}.9 x .+Q.G V i.0 h j : ",
"' 6 v @ $ K J.~.q.W q [+}+O.|+k.}+@.++m.1+2+Y #. +q @+#+) o.j 6 m ",
"  `.3 V (.o.h.5 6.< < ! #.3+,+4+~./+K.P 8.; f 5 B x.D } i @ - =   ",
"    o { Y x z X.Q.C 8 3 4 =+1.0 1.5.p s B r  +[ ] C t     1 ,     ",
"        / k k #.K.0.z 0 =+Q.a { j ] 8 #.< (.s K (.w +             ",
"        J D 0 I.; | ,.( = '.Q.d { c   ( j Y g >.9 c               "};
