/* XPM */
static char * thumbnail (3)_xpm[] = {
"33 33 150 2",
"  	c None",
". 	c #7B8DA1",
"+ 	c #8195AA",
"@ 	c #77899B",
"# 	c #768799",
"$ 	c #647484",
"% 	c #6A7E90",
"& 	c #3B444C",
"* 	c #361D20",
"= 	c #5D5A66",
"- 	c #728395",
"; 	c #4A1314",
"> 	c #1C0E0F",
", 	c #667989",
"' 	c #6C7C8C",
") 	c #4C191B",
"! 	c #230A0B",
"~ 	c #4A535E",
"{ 	c #788A9E",
"] 	c #462F22",
"^ 	c #37261A",
"/ 	c #54575D",
"( 	c #677887",
"_ 	c #3B241B",
": 	c #2E1915",
"< 	c #22110E",
"[ 	c #2B2A2A",
"} 	c #5D6C7A",
"| 	c #5C1B1D",
"1 	c #551A1C",
"2 	c #441B1D",
"3 	c #290A08",
"4 	c #392B2E",
"5 	c #5F616D",
"6 	c #61626F",
"7 	c #5F7184",
"8 	c #711F22",
"9 	c #6C1F22",
"0 	c #651D20",
"a 	c #621C1E",
"b 	c #51353C",
"c 	c #616F7E",
"d 	c #606A77",
"e 	c #62707F",
"f 	c #752124",
"g 	c #5A1415",
"h 	c #48272C",
"i 	c #5B6976",
"j 	c #6C6362",
"k 	c #726059",
"l 	c #7B2225",
"m 	c #44373D",
"n 	c #596673",
"o 	c #656264",
"p 	c #73594C",
"q 	c #834F30",
"r 	c #834D2D",
"s 	c #8E522E",
"t 	c #8D5A3C",
"u 	c #3B191A",
"v 	c #535E6A",
"w 	c #546575",
"x 	c #585659",
"y 	c #6D5041",
"z 	c #8A5332",
"A 	c #925633",
"B 	c #9D5C35",
"C 	c #511F23",
"D 	c #281B20",
"E 	c #37191A",
"F 	c #3C1213",
"G 	c #424B54",
"H 	c #515B66",
"I 	c #554B48",
"J 	c #663E26",
"K 	c #7C4A2D",
"L 	c #715343",
"M 	c #56626F",
"N 	c #682024",
"O 	c #1F2225",
"P 	c #161D24",
"Q 	c #1C1515",
"R 	c #6C442D",
"S 	c #7A4526",
"T 	c #9C5D38",
"U 	c #A3613A",
"V 	c #B2693E",
"W 	c #905B3C",
"X 	c #22252A",
"Y 	c #2C2529",
"Z 	c #865131",
"` 	c #77482C",
" .	c #5D3A25",
"..	c #4E5964",
"+.	c #351B16",
"@.	c #431719",
"#.	c #4A1719",
"$.	c #421C21",
"%.	c #1C1E22",
"&.	c #945935",
"*.	c #5C351E",
"=.	c #4D5761",
"-.	c #1A120D",
";.	c #241312",
">.	c #361415",
",.	c #101012",
"'.	c #11171D",
").	c #221B19",
"!.	c #AC653B",
"~.	c #704C38",
"{.	c #46505B",
"].	c #130C0B",
"^.	c #362D31",
"/.	c #391618",
"(.	c #2B1414",
"_.	c #27171A",
":.	c #3C3332",
"<.	c #473125",
"[.	c #483428",
"}.	c #412A30",
"|.	c #462C1E",
"1.	c #51321E",
"2.	c #4B403C",
"3.	c #0F1316",
"4.	c #330F10",
"5.	c #393F46",
"6.	c #5F402D",
"7.	c #3E4952",
"8.	c #3D4751",
"9.	c #36414B",
"0.	c #31373E",
"a.	c #0F0807",
"b.	c #424143",
"c.	c #5E4132",
"d.	c #25282D",
"e.	c #353C44",
"f.	c #363F48",
"g.	c #513322",
"h.	c #282D31",
"i.	c #2F343A",
"j.	c #4C3122",
"k.	c #604433",
"l.	c #222326",
"m.	c #2B3035",
"n.	c #423B39",
"o.	c #3E291C",
"p.	c #271912",
"q.	c #1A1B1D",
"r.	c #323133",
"s.	c #172027",
". . . . . . . . + @ + + . + + + + + # + + @ + + . . + . . + . . . ",
"$ . @ . . . . . @ + @ @ @ # % + % + # # # + # @ . @ . . # . . # . ",
"& + @ @ @ @ @ @ @ @ @ @ @ @ @ + @ @ # # # # @ # # # @ @ @ @ # # @ ",
"* = @ - # - # # - # - # % # # % # # % # # # # # - # # - # - - # @ ",
"; > , - - - - - - % - - - - - % ' # ' % # ' ' # - - ' - ' # - ' - ",
") ! ~ { , ' ' ' ' ' % ' ' ' ' ' ' ' ' ' ' ' ' ' ' ' ' ' ' ' - ' ' ",
"] ^ ^ / ' ' , , ( ' ( ' ' ' ' ' ' ' ' ' ' ' ' ' ' ' ' ' ' ' ' ' , ",
"_ _ : < [ } % , ' ( ' ' ( $ ( $ ' $ $ ' ' ' $ $ ( ( $ ( $ ( ( ( ( ",
"| | 1 2 3 4 5 6 = = = 6 ( $ 7 $ $ $ $ $ $ 7 $ $ $ $ $ $ $ $ $ $ $ ",
"8 9 0 a 0 | 1 | a a a | b c $ c d $ 7 7 d $ d 7 $ $ 7 $ 7 7 d 7 e ",
"9 0 0 0 0 0 9 9 f f 8 9 g h i d } d d d d 7 7 } 6 j k 6 7 i d 7 } ",
"0 0 0 0 0 0 9 f l l 8 9 0 ; m c n i i i } i o p q r s t = 7 6 6 i ",
"a a 0 a 0 0 9 f l l 8 9 0 | u v } n n w x y r r z z A B y w n n n ",
"| | | a 0 0 8 f l l 8 C D E F G H I I J K q J q q K q A L v M M M ",
"1 | | | a 0 9 l l l N O P P Q m R S K r T q q z A A U V W H v v M ",
") ) ) 1 | 0 9 8 l l C P X P Y K Z A z B T ` ` K ` K q q  ...H H ..",
"+.@.#.) 1 | 9 9 8 8 $.P O %.R z &.&.&.U A K K Z Z &.U *.& H / =./ ",
"-.;.>.F #.1 0 0 0 0 $.,.'.).*.z T A q A Z K q Z Z T !.~.{.~ ~ ~ ~ ",
";.-.].^.$.; 1 1 1 1 #./.(._.:.K U &.J <.[.}.] ] |.1.*.2.{.{.{.{.~ ",
";.].3.G G }.@.F @.F >.4.(.5.{.6.A U K :.7.G G 8.9.0.9.G {.G G G G ",
";.a.O G G G b.Y ;.;.> D 9.G G & <.J &.Z c.b.G G G {.G G 7.G G 8.G ",
";.a.d.G & & 8.G & e.f.7.G & & & & ^.g.&.T ` b.8.& & b.& 8.& 8.& & ",
"(.].h.& & & & 9.& & & & & & & 9.& 8.i.j.T U k.f.& & & & & & & & & ",
"F < l.& e.5.e.5.e.f.f.f.e.9.e.e.5.5.& m.j.` n.5.0.9.9.& 0.& 0.9.& ",
"o.p.q.e.e.e.0.e.e.e.e.e.e.0.e.e.e.e.0.9.i.r.0.9.0.9.e.e.0.e.e.e.e.",
"^ +.q.0.0.0.0.0.0.0.0.0.0.0.0.0.i.0.0.0.0.e.0.0.0.0.0.0.0.0.0.i.0.",
"j.o.).m.r.0.0.m.i.i.i.i.i.i.i.i.0.m.i.i.i.i.m.i.r.i.i.i.i.i.i.i.i.",
"_ : ).m.m.m.m.m.m.m.m.m.m.m.m.m.m.m.m.m.m.m.m.m.m.m.m.m.m.m.m.m.m.",
"E p.X h.h.h.h.h.h.h.h.h.h.h.h.h.m.[ h.h.d.m.h.h.m.d.h.h.m.[ m.h.h.",
"E ;.d.d.d.d.d.d.d.d.d.d.d.d.d.d.d.d.d.d.d.d.d.d.d.d.d.d.d.d.d.d.d.",
": ,.O X X X X X X X X X X X X X X X X X X X X X X X X X X X X X X ",
": -.q.l.O O O O O O O O O O O O O O O O O O O O O O O O O O O O O ",
";.;.Q s.%.%.%.O %.%.%.%.%.%.%.%.%.%.%.%.%.q.O %.%.%.%.%.O q.%.O q."};
